<svg width="34" height="34" viewBox="0 0 34 34" fill="none" xmlns="http://www.w3.org/2000/svg">
<path d="M0.333328 28.6666C0.333328 31.5 2.49999 33.6666 5.33333 33.6666H28.6667C31.5 33.6666 33.6667 31.5 33.6667 28.6666V15.3333H0.333328V28.6666ZM28.6667 3.66665H25.3333V1.99998C25.3333 0.99998 24.6667 0.333313 23.6667 0.333313C22.6667 0.333313 22 0.99998 22 1.99998V3.66665H12V1.99998C12 0.99998 11.3333 0.333313 10.3333 0.333313C9.33333 0.333313 8.66666 0.99998 8.66666 1.99998V3.66665H5.33333C2.49999 3.66665 0.333328 5.83331 0.333328 8.66665V12H33.6667V8.66665C33.6667 5.83331 31.5 3.66665 28.6667 3.66665Z" fill="black"/>
</svg>
