<svg width="32" height="32" viewBox="0 0 32 32" fill="none" xmlns="http://www.w3.org/2000/svg">
<path d="M18.6667 2.83331C18.6667 2.17027 18.4033 1.53439 17.9344 1.06555C17.4656 0.596705 16.8297 0.333313 16.1667 0.333313C15.5036 0.333313 14.8678 0.596705 14.3989 1.06555C13.9301 1.53439 13.6667 2.17027 13.6667 2.83331V13.6666H2.83334C2.1703 13.6666 1.53442 13.93 1.06558 14.3989C0.596736 14.8677 0.333344 15.5036 0.333344 16.1666C0.333344 16.8297 0.596736 17.4656 1.06558 17.9344C1.53442 18.4033 2.1703 18.6666 2.83334 18.6666H13.6667V29.5C13.6667 30.163 13.9301 30.7989 14.3989 31.2677C14.8678 31.7366 15.5036 32 16.1667 32C16.8297 32 17.4656 31.7366 17.9344 31.2677C18.4033 30.7989 18.6667 30.163 18.6667 29.5V18.6666H29.5C30.1631 18.6666 30.7989 18.4033 31.2678 17.9344C31.7366 17.4656 32 16.8297 32 16.1666C32 15.5036 31.7366 14.8677 31.2678 14.3989C30.7989 13.93 30.1631 13.6666 29.5 13.6666H18.6667V2.83331Z" fill="black"/>
</svg>
