<svg width="34" height="34" viewBox="0 0 34 34" fill="none" xmlns="http://www.w3.org/2000/svg">
<path d="M13.6667 0.333314C11.5809 0.334429 9.52457 0.824839 7.66283 1.76513C5.80108 2.70542 4.1859 4.06936 2.94708 5.74733C1.70827 7.4253 0.88039 9.37049 0.529976 11.4266C0.179562 13.4826 0.316391 15.5922 0.929465 17.5858C1.54254 19.5794 2.61476 21.4014 4.05995 22.9053C5.50513 24.4091 7.28298 25.553 9.25058 26.2449C11.2182 26.9368 13.3207 27.1575 15.3891 26.8892C17.4575 26.6209 19.4341 25.871 21.16 24.7L29.4 32.9333C29.6289 33.1789 29.9049 33.3759 30.2115 33.5126C30.5182 33.6492 30.8492 33.7227 31.1849 33.7286C31.5206 33.7345 31.854 33.6728 32.1653 33.5471C32.4766 33.4213 32.7594 33.2342 32.9968 32.9968C33.2342 32.7594 33.4213 32.4766 33.5471 32.1653C33.6728 31.854 33.7346 31.5206 33.7286 31.1849C33.7227 30.8492 33.6492 30.5182 33.5126 30.2115C33.376 29.9049 33.1789 29.6289 32.9333 29.4L24.7 21.16C26.0621 19.1553 26.852 16.8172 26.9848 14.3971C27.1176 11.977 26.5882 9.56657 25.4536 7.42485C24.319 5.28313 22.622 3.49119 20.5452 2.2417C18.4685 0.992211 16.0904 0.332435 13.6667 0.333314ZM5.33333 13.6666C5.33333 11.4565 6.2113 9.33689 7.77411 7.77409C9.33691 6.21129 11.4565 5.33331 13.6667 5.33331C15.8768 5.33331 17.9964 6.21129 19.5592 7.77409C21.122 9.33689 22 11.4565 22 13.6666C22 15.8768 21.122 17.9964 19.5592 19.5592C17.9964 21.122 15.8768 22 13.6667 22C11.4565 22 9.33691 21.122 7.77411 19.5592C6.2113 17.9964 5.33333 15.8768 5.33333 13.6666Z" fill="black"/>
</svg>
